M48
; DRILL file {KiCad (5.1.9)-1} date 03/30/21 17:26:43
; FORMAT={-:-/ absolute / inch / decimal}
; #@! TF.CreationDate,2021-03-30T17:26:43-07:00
; #@! TF.GenerationSoftware,Kicad,Pcbnew,(5.1.9)-1
; #@! TF.FileFunction,Plated,1,2,PTH
FMAT,2
INCH
T1C0.0157
T2C0.0236
T3C0.0315
T4C0.0394
%
G90
G05
T1
X0.5Y1.013
X0.5Y0.513
X0.525Y0.688
X0.525Y0.638
X0.525Y0.588
X0.525Y0.538
X0.525Y0.488
X0.525Y0.388
X0.575Y0.763
X0.575Y0.363
X0.65Y1.038
X0.675Y1.488
X0.675Y0.638
X0.775Y0.663
X0.8Y1.463
X0.8Y0.388
X0.8125Y0.938
X0.875Y1.038
X0.875Y0.688
X0.9Y0.363
X0.95Y0.763
X1.0Y0.538
X1.025Y0.788
X1.1Y0.513
X1.175Y0.688
X1.2Y0.588
X1.225Y0.638
X1.3Y0.613
X1.425Y0.763
X1.45Y0.663
X1.575Y1.563
X1.625Y1.563
X1.725Y0.463
X1.75Y1.288
X1.825Y0.763
X1.85Y1.263
X1.85Y0.363
X1.95Y0.388
X2.025Y0.363
X2.05Y0.413
X2.125Y0.438
X2.225Y0.163
X2.25Y1.513
X2.325Y0.588
X2.35Y0.613
X2.375Y0.513
X2.6Y0.463
X2.6Y0.913
X2.625Y1.488
X2.625Y0.738
X2.625Y0.363
X2.65Y1.463
X2.8Y1.013
X2.925Y0.938
X2.925Y0.138
X2.95Y1.513
X2.975Y1.538
X3.0Y1.563
X3.0Y0.413
X3.0Y0.138
X3.05Y0.963
X3.075Y0.988
T2
X2.1625Y0.588
T3
X0.1Y1.063
X0.1Y0.963
X0.1Y0.863
X0.1Y0.763
X0.1Y0.663
X0.1Y0.563
X0.1Y0.463
X0.1Y0.363
X0.3016Y1.163
X0.4Y1.163
X0.4Y1.063
X0.4Y0.963
X0.4Y0.863
X0.4Y0.763
X0.4Y0.663
X0.4Y0.563
X0.4Y0.463
X0.4Y0.363
X0.6Y1.813
X0.6Y1.713
X0.6Y1.113
X0.6Y0.963
X0.6Y0.863
X0.6Y0.263
X0.6984Y1.813
X0.6984Y0.963
X0.7Y1.713
X0.7Y1.113
X0.7Y0.863
X0.7Y0.263
X0.8Y1.713
X0.8Y1.113
X0.8Y0.863
X0.8Y0.263
X0.9Y1.713
X0.9Y1.113
X0.9Y0.863
X0.9Y0.263
X1.0Y1.713
X1.0Y1.113
X1.0Y0.863
X1.0Y0.263
X1.1Y1.713
X1.1Y1.113
X1.1Y0.863
X1.1Y0.263
X1.2Y1.713
X1.2Y1.113
X1.2Y0.863
X1.2Y0.263
X1.3Y1.713
X1.3Y1.113
X1.3Y0.863
X1.3Y0.263
X1.4Y1.713
X1.4Y1.113
X1.4Y0.863
X1.4Y0.263
X1.5Y1.713
X1.5Y1.113
X1.5Y0.863
X1.5Y0.263
X1.6Y1.713
X1.6Y1.113
X1.6Y0.863
X1.6Y0.263
X1.7Y1.713
X1.7Y1.113
X1.7Y0.863
X1.7Y0.263
X1.8Y1.713
X1.8Y1.113
X1.8Y0.863
X1.8Y0.263
X1.9Y1.713
X1.9Y1.113
X1.9Y0.863
X1.9Y0.263
X2.0Y1.713
X2.0Y1.113
X2.0Y0.863
X2.0Y0.263
X2.1Y1.713
X2.1Y1.113
X2.1Y0.863
X2.1Y0.263
X2.45Y1.763
X2.45Y1.663
X2.45Y1.363
X2.45Y0.663
X2.45Y0.563
X2.45Y0.263
X2.5Y1.213
X2.5Y1.113
X2.5Y0.813
X2.5484Y1.763
X2.5484Y0.663
X2.55Y1.663
X2.55Y1.363
X2.55Y0.563
X2.55Y0.263
X2.5984Y1.213
X2.6Y1.113
X2.6Y0.813
X2.65Y1.663
X2.65Y1.363
X2.65Y0.563
X2.65Y0.263
X2.7Y1.113
X2.7Y0.813
X2.75Y1.663
X2.75Y1.363
X2.75Y0.563
X2.75Y0.263
X2.8Y1.113
X2.8Y0.813
X2.85Y1.663
X2.85Y1.363
X2.85Y0.563
X2.85Y0.263
X2.9Y1.113
X2.9Y0.813
X2.95Y1.663
X2.95Y1.363
X2.95Y0.563
X2.95Y0.263
X3.0Y1.113
X3.0Y0.813
X3.05Y1.663
X3.05Y1.363
X3.05Y0.563
X3.05Y0.263
X3.1Y1.113
X3.1Y0.813
X3.15Y1.663
X3.15Y1.363
X3.15Y0.563
X3.15Y0.263
T4
X0.05Y0.063
X0.15Y0.063
X0.25Y0.063
X0.35Y0.063
X0.45Y0.063
X0.55Y0.063
X0.65Y0.063
X0.75Y0.063
X0.85Y0.063
X0.95Y0.063
X1.05Y0.063
X1.15Y0.063
X1.25Y0.063
X1.35Y0.063
X1.45Y0.063
X1.55Y0.063
X1.65Y0.063
X1.75Y0.063
X1.85Y0.063
X1.95Y0.063
X2.05Y0.063
X2.15Y0.063
X2.25Y0.063
X2.35Y0.063
X2.45Y0.063
X2.55Y0.063
X2.65Y0.063
X2.75Y0.063
X2.85Y0.063
X2.95Y0.063
X3.05Y0.063
X3.15Y0.063
X3.25Y0.063
X3.35Y0.063
X3.45Y0.063
X3.55Y0.063
X3.65Y0.063
X3.75Y0.063
X3.85Y0.063
T0
M30
