%TF.GenerationSoftware,KiCad,Pcbnew,(5.1.9)-1*%
%TF.CreationDate,2021-04-05T02:41:22-07:00*%
%TF.ProjectId,rc-1024k,72632d31-3032-4346-9b2e-6b696361645f,rev?*%
%TF.SameCoordinates,PX9157080PY9071968*%
%TF.FileFunction,Legend,Bot*%
%TF.FilePolarity,Positive*%
%FSLAX46Y46*%
G04 Gerber Fmt 4.6, Leading zero omitted, Abs format (unit mm)*
G04 Created by KiCad (PCBNEW (5.1.9)-1) date 2021-04-05 02:41:22*
%MOMM*%
%LPD*%
G01*
G04 APERTURE LIST*
%ADD10C,0.300000*%
G04 APERTURE END LIST*
D10*
X78252857Y48141629D02*
X78967142Y48141629D01*
X79038571Y47427343D01*
X78967142Y47498772D01*
X78824285Y47570200D01*
X78467142Y47570200D01*
X78324285Y47498772D01*
X78252857Y47427343D01*
X78181428Y47284486D01*
X78181428Y46927343D01*
X78252857Y46784486D01*
X78324285Y46713058D01*
X78467142Y46641629D01*
X78824285Y46641629D01*
X78967142Y46713058D01*
X79038571Y46784486D01*
X76752857Y46641629D02*
X77610000Y46641629D01*
X77181428Y46641629D02*
X77181428Y48141629D01*
X77324285Y47927343D01*
X77467142Y47784486D01*
X77610000Y47713058D01*
X76181428Y47998772D02*
X76110000Y48070200D01*
X75967142Y48141629D01*
X75610000Y48141629D01*
X75467142Y48070200D01*
X75395714Y47998772D01*
X75324285Y47855915D01*
X75324285Y47713058D01*
X75395714Y47498772D01*
X76252857Y46641629D01*
X75324285Y46641629D01*
X74681428Y46641629D02*
X74681428Y48141629D01*
X73824285Y46641629D02*
X74467142Y47498772D01*
X73824285Y48141629D02*
X74681428Y47284486D01*
X73181428Y47213058D02*
X72038571Y47213058D01*
X72610000Y46641629D02*
X72610000Y47784486D01*
X70610000Y48141629D02*
X71324285Y48141629D01*
X71395714Y47427343D01*
X71324285Y47498772D01*
X71181428Y47570200D01*
X70824285Y47570200D01*
X70681428Y47498772D01*
X70610000Y47427343D01*
X70538571Y47284486D01*
X70538571Y46927343D01*
X70610000Y46784486D01*
X70681428Y46713058D01*
X70824285Y46641629D01*
X71181428Y46641629D01*
X71324285Y46713058D01*
X71395714Y46784486D01*
X69110000Y46641629D02*
X69967142Y46641629D01*
X69538571Y46641629D02*
X69538571Y48141629D01*
X69681428Y47927343D01*
X69824285Y47784486D01*
X69967142Y47713058D01*
X68538571Y47998772D02*
X68467142Y48070200D01*
X68324285Y48141629D01*
X67967142Y48141629D01*
X67824285Y48070200D01*
X67752857Y47998772D01*
X67681428Y47855915D01*
X67681428Y47713058D01*
X67752857Y47498772D01*
X68610000Y46641629D01*
X67681428Y46641629D01*
X67038571Y46641629D02*
X67038571Y48141629D01*
X66181428Y46641629D02*
X66824285Y47498772D01*
X66181428Y48141629D02*
X67038571Y47284486D01*
X63538571Y46641629D02*
X64038571Y47355915D01*
X64395714Y46641629D02*
X64395714Y48141629D01*
X63824285Y48141629D01*
X63681428Y48070200D01*
X63610000Y47998772D01*
X63538571Y47855915D01*
X63538571Y47641629D01*
X63610000Y47498772D01*
X63681428Y47427343D01*
X63824285Y47355915D01*
X64395714Y47355915D01*
X62967142Y47070200D02*
X62252857Y47070200D01*
X63110000Y46641629D02*
X62610000Y48141629D01*
X62110000Y46641629D01*
X61610000Y46641629D02*
X61610000Y48141629D01*
X61110000Y47070200D01*
X60610000Y48141629D01*
X60610000Y46641629D01*
X58824285Y48213058D02*
X60110000Y46284486D01*
X57467142Y46641629D02*
X57967142Y47355915D01*
X58324285Y46641629D02*
X58324285Y48141629D01*
X57752857Y48141629D01*
X57610000Y48070200D01*
X57538571Y47998772D01*
X57467142Y47855915D01*
X57467142Y47641629D01*
X57538571Y47498772D01*
X57610000Y47427343D01*
X57752857Y47355915D01*
X58324285Y47355915D01*
X56538571Y48141629D02*
X56252857Y48141629D01*
X56110000Y48070200D01*
X55967142Y47927343D01*
X55895714Y47641629D01*
X55895714Y47141629D01*
X55967142Y46855915D01*
X56110000Y46713058D01*
X56252857Y46641629D01*
X56538571Y46641629D01*
X56681428Y46713058D01*
X56824285Y46855915D01*
X56895714Y47141629D01*
X56895714Y47641629D01*
X56824285Y47927343D01*
X56681428Y48070200D01*
X56538571Y48141629D01*
X55252857Y46641629D02*
X55252857Y48141629D01*
X54752857Y47070200D01*
X54252857Y48141629D01*
X54252857Y46641629D01*
X51538571Y46784486D02*
X51610000Y46713058D01*
X51824285Y46641629D01*
X51967142Y46641629D01*
X52181428Y46713058D01*
X52324285Y46855915D01*
X52395714Y46998772D01*
X52467142Y47284486D01*
X52467142Y47498772D01*
X52395714Y47784486D01*
X52324285Y47927343D01*
X52181428Y48070200D01*
X51967142Y48141629D01*
X51824285Y48141629D01*
X51610000Y48070200D01*
X51538571Y47998772D01*
X50252857Y46641629D02*
X50252857Y47427343D01*
X50324285Y47570200D01*
X50467142Y47641629D01*
X50752857Y47641629D01*
X50895714Y47570200D01*
X50252857Y46713058D02*
X50395714Y46641629D01*
X50752857Y46641629D01*
X50895714Y46713058D01*
X50967142Y46855915D01*
X50967142Y46998772D01*
X50895714Y47141629D01*
X50752857Y47213058D01*
X50395714Y47213058D01*
X50252857Y47284486D01*
X49538571Y46641629D02*
X49538571Y47641629D01*
X49538571Y47355915D02*
X49467142Y47498772D01*
X49395714Y47570200D01*
X49252857Y47641629D01*
X49110000Y47641629D01*
X47967142Y46641629D02*
X47967142Y48141629D01*
X47967142Y46713058D02*
X48110000Y46641629D01*
X48395714Y46641629D01*
X48538571Y46713058D01*
X48610000Y46784486D01*
X48681428Y46927343D01*
X48681428Y47355915D01*
X48610000Y47498772D01*
X48538571Y47570200D01*
X48395714Y47641629D01*
X48110000Y47641629D01*
X47967142Y47570200D01*
X42681428Y46641629D02*
X42681428Y48141629D01*
X42110000Y48141629D01*
X41967142Y48070200D01*
X41895714Y47998772D01*
X41824285Y47855915D01*
X41824285Y47641629D01*
X41895714Y47498772D01*
X41967142Y47427343D01*
X42110000Y47355915D01*
X42681428Y47355915D01*
X41181428Y46641629D02*
X41181428Y48141629D01*
X40824285Y48141629D01*
X40610000Y48070200D01*
X40467142Y47927343D01*
X40395714Y47784486D01*
X40324285Y47498772D01*
X40324285Y47284486D01*
X40395714Y46998772D01*
X40467142Y46855915D01*
X40610000Y46713058D01*
X40824285Y46641629D01*
X41181428Y46641629D01*
X38895714Y46641629D02*
X39752857Y46641629D01*
X39324285Y46641629D02*
X39324285Y48141629D01*
X39467142Y47927343D01*
X39610000Y47784486D01*
X39752857Y47713058D01*
X37967142Y48141629D02*
X37824285Y48141629D01*
X37681428Y48070200D01*
X37610000Y47998772D01*
X37538571Y47855915D01*
X37467142Y47570200D01*
X37467142Y47213058D01*
X37538571Y46927343D01*
X37610000Y46784486D01*
X37681428Y46713058D01*
X37824285Y46641629D01*
X37967142Y46641629D01*
X38110000Y46713058D01*
X38181428Y46784486D01*
X38252857Y46927343D01*
X38324285Y47213058D01*
X38324285Y47570200D01*
X38252857Y47855915D01*
X38181428Y47998772D01*
X38110000Y48070200D01*
X37967142Y48141629D01*
X36752857Y46641629D02*
X36467142Y46641629D01*
X36324285Y46713058D01*
X36252857Y46784486D01*
X36110000Y46998772D01*
X36038571Y47284486D01*
X36038571Y47855915D01*
X36110000Y47998772D01*
X36181428Y48070200D01*
X36324285Y48141629D01*
X36610000Y48141629D01*
X36752857Y48070200D01*
X36824285Y47998772D01*
X36895714Y47855915D01*
X36895714Y47498772D01*
X36824285Y47355915D01*
X36752857Y47284486D01*
X36610000Y47213058D01*
X36324285Y47213058D01*
X36181428Y47284486D01*
X36110000Y47355915D01*
X36038571Y47498772D01*
X34395714Y47641629D02*
X34038571Y46641629D01*
X33681428Y47641629D01*
X32324285Y46641629D02*
X33181428Y46641629D01*
X32752857Y46641629D02*
X32752857Y48141629D01*
X32895714Y47927343D01*
X33038571Y47784486D01*
X33181428Y47713058D01*
X31681428Y46784486D02*
X31610000Y46713058D01*
X31681428Y46641629D01*
X31752857Y46713058D01*
X31681428Y46784486D01*
X31681428Y46641629D01*
X30681428Y48141629D02*
X30538571Y48141629D01*
X30395714Y48070200D01*
X30324285Y47998772D01*
X30252857Y47855915D01*
X30181428Y47570200D01*
X30181428Y47213058D01*
X30252857Y46927343D01*
X30324285Y46784486D01*
X30395714Y46713058D01*
X30538571Y46641629D01*
X30681428Y46641629D01*
X30824285Y46713058D01*
X30895714Y46784486D01*
X30967142Y46927343D01*
X31038571Y47213058D01*
X31038571Y47570200D01*
X30967142Y47855915D01*
X30895714Y47998772D01*
X30824285Y48070200D01*
X30681428Y48141629D01*
M02*
