%TF.GenerationSoftware,KiCad,Pcbnew,(5.1.9)-1*%
%TF.CreationDate,2021-04-02T02:04:45-07:00*%
%TF.ProjectId,rc-1024k,72632d31-3032-4346-9b2e-6b696361645f,rev?*%
%TF.SameCoordinates,PX9157080PY9071968*%
%TF.FileFunction,Legend,Top*%
%TF.FilePolarity,Positive*%
%FSLAX46Y46*%
G04 Gerber Fmt 4.6, Leading zero omitted, Abs format (unit mm)*
G04 Created by KiCad (PCBNEW (5.1.9)-1) date 2021-04-02 02:04:45*
%MOMM*%
%LPD*%
G01*
G04 APERTURE LIST*
%ADD10C,0.300000*%
%ADD11C,0.150000*%
%ADD12C,0.200000*%
%ADD13C,0.120000*%
%ADD14C,0.100000*%
G04 APERTURE END LIST*
D10*
X82685714Y45371629D02*
X82685714Y46871629D01*
X83257142Y46871629D01*
X83400000Y46800200D01*
X83471428Y46728772D01*
X83542857Y46585915D01*
X83542857Y46371629D01*
X83471428Y46228772D01*
X83400000Y46157343D01*
X83257142Y46085915D01*
X82685714Y46085915D01*
X84185714Y45371629D02*
X84185714Y46871629D01*
X84542857Y46871629D01*
X84757142Y46800200D01*
X84900000Y46657343D01*
X84971428Y46514486D01*
X85042857Y46228772D01*
X85042857Y46014486D01*
X84971428Y45728772D01*
X84900000Y45585915D01*
X84757142Y45443058D01*
X84542857Y45371629D01*
X84185714Y45371629D01*
X86471428Y45371629D02*
X85614285Y45371629D01*
X86042857Y45371629D02*
X86042857Y46871629D01*
X85900000Y46657343D01*
X85757142Y46514486D01*
X85614285Y46443058D01*
X87400000Y46871629D02*
X87542857Y46871629D01*
X87685714Y46800200D01*
X87757142Y46728772D01*
X87828571Y46585915D01*
X87900000Y46300200D01*
X87900000Y45943058D01*
X87828571Y45657343D01*
X87757142Y45514486D01*
X87685714Y45443058D01*
X87542857Y45371629D01*
X87400000Y45371629D01*
X87257142Y45443058D01*
X87185714Y45514486D01*
X87114285Y45657343D01*
X87042857Y45943058D01*
X87042857Y46300200D01*
X87114285Y46585915D01*
X87185714Y46728772D01*
X87257142Y46800200D01*
X87400000Y46871629D01*
X88614285Y45371629D02*
X88900000Y45371629D01*
X89042857Y45443058D01*
X89114285Y45514486D01*
X89257142Y45728772D01*
X89328571Y46014486D01*
X89328571Y46585915D01*
X89257142Y46728772D01*
X89185714Y46800200D01*
X89042857Y46871629D01*
X88757142Y46871629D01*
X88614285Y46800200D01*
X88542857Y46728772D01*
X88471428Y46585915D01*
X88471428Y46228772D01*
X88542857Y46085915D01*
X88614285Y46014486D01*
X88757142Y45943058D01*
X89042857Y45943058D01*
X89185714Y46014486D01*
X89257142Y46085915D01*
X89328571Y46228772D01*
X90971428Y46371629D02*
X91328571Y45371629D01*
X91685714Y46371629D01*
X93042857Y45371629D02*
X92185714Y45371629D01*
X92614285Y45371629D02*
X92614285Y46871629D01*
X92471428Y46657343D01*
X92328571Y46514486D01*
X92185714Y46443058D01*
X93685714Y45514486D02*
X93757142Y45443058D01*
X93685714Y45371629D01*
X93614285Y45443058D01*
X93685714Y45514486D01*
X93685714Y45371629D01*
X94685714Y46871629D02*
X94828571Y46871629D01*
X94971428Y46800200D01*
X95042857Y46728772D01*
X95114285Y46585915D01*
X95185714Y46300200D01*
X95185714Y45943058D01*
X95114285Y45657343D01*
X95042857Y45514486D01*
X94971428Y45443058D01*
X94828571Y45371629D01*
X94685714Y45371629D01*
X94542857Y45443058D01*
X94471428Y45514486D01*
X94400000Y45657343D01*
X94328571Y45943058D01*
X94328571Y46300200D01*
X94400000Y46585915D01*
X94471428Y46728772D01*
X94542857Y46800200D01*
X94685714Y46871629D01*
D11*
X23439523Y13847820D02*
X23106190Y14324010D01*
X22868095Y13847820D02*
X22868095Y14847820D01*
X23249047Y14847820D01*
X23344285Y14800200D01*
X23391904Y14752581D01*
X23439523Y14657343D01*
X23439523Y14514486D01*
X23391904Y14419248D01*
X23344285Y14371629D01*
X23249047Y14324010D01*
X22868095Y14324010D01*
X23820476Y14133534D02*
X24296666Y14133534D01*
X23725238Y13847820D02*
X24058571Y14847820D01*
X24391904Y13847820D01*
X24725238Y13847820D02*
X24725238Y14847820D01*
X25058571Y14133534D01*
X25391904Y14847820D01*
X25391904Y13847820D01*
X22701428Y35961629D02*
X22368095Y35961629D01*
X22368095Y35437820D02*
X22368095Y36437820D01*
X22844285Y36437820D01*
X23368095Y35437820D02*
X23272857Y35485439D01*
X23225238Y35580677D01*
X23225238Y36437820D01*
X24177619Y35437820D02*
X24177619Y35961629D01*
X24130000Y36056867D01*
X24034761Y36104486D01*
X23844285Y36104486D01*
X23749047Y36056867D01*
X24177619Y35485439D02*
X24082380Y35437820D01*
X23844285Y35437820D01*
X23749047Y35485439D01*
X23701428Y35580677D01*
X23701428Y35675915D01*
X23749047Y35771153D01*
X23844285Y35818772D01*
X24082380Y35818772D01*
X24177619Y35866391D01*
X24606190Y35485439D02*
X24701428Y35437820D01*
X24891904Y35437820D01*
X24987142Y35485439D01*
X25034761Y35580677D01*
X25034761Y35628296D01*
X24987142Y35723534D01*
X24891904Y35771153D01*
X24749047Y35771153D01*
X24653809Y35818772D01*
X24606190Y35914010D01*
X24606190Y35961629D01*
X24653809Y36056867D01*
X24749047Y36104486D01*
X24891904Y36104486D01*
X24987142Y36056867D01*
X25463333Y35437820D02*
X25463333Y36437820D01*
X25891904Y35437820D02*
X25891904Y35961629D01*
X25844285Y36056867D01*
X25749047Y36104486D01*
X25606190Y36104486D01*
X25510952Y36056867D01*
X25463333Y36009248D01*
X41758809Y20075677D02*
X41758809Y19168534D01*
X41698333Y18987105D01*
X41577380Y18866153D01*
X41395952Y18805677D01*
X41275000Y18805677D01*
X42968333Y18805677D02*
X42363571Y18805677D01*
X42363571Y20075677D01*
X44117380Y18926629D02*
X44056904Y18866153D01*
X43875476Y18805677D01*
X43754523Y18805677D01*
X43573095Y18866153D01*
X43452142Y18987105D01*
X43391666Y19108058D01*
X43331190Y19349962D01*
X43331190Y19531391D01*
X43391666Y19773296D01*
X43452142Y19894248D01*
X43573095Y20015200D01*
X43754523Y20075677D01*
X43875476Y20075677D01*
X44056904Y20015200D01*
X44117380Y19954724D01*
X45024523Y20075677D02*
X45024523Y19168534D01*
X44964047Y18987105D01*
X44843095Y18866153D01*
X44661666Y18805677D01*
X44540714Y18805677D01*
X46234047Y18805677D02*
X45629285Y18805677D01*
X45629285Y20075677D01*
X47383095Y18926629D02*
X47322619Y18866153D01*
X47141190Y18805677D01*
X47020238Y18805677D01*
X46838809Y18866153D01*
X46717857Y18987105D01*
X46657380Y19108058D01*
X46596904Y19349962D01*
X46596904Y19531391D01*
X46657380Y19773296D01*
X46717857Y19894248D01*
X46838809Y20015200D01*
X47020238Y20075677D01*
X47141190Y20075677D01*
X47322619Y20015200D01*
X47383095Y19954724D01*
X48290238Y20075677D02*
X48290238Y19168534D01*
X48229761Y18987105D01*
X48108809Y18866153D01*
X47927380Y18805677D01*
X47806428Y18805677D01*
X49499761Y18805677D02*
X48895000Y18805677D01*
X48895000Y20075677D01*
X50648809Y18926629D02*
X50588333Y18866153D01*
X50406904Y18805677D01*
X50285952Y18805677D01*
X50104523Y18866153D01*
X49983571Y18987105D01*
X49923095Y19108058D01*
X49862619Y19349962D01*
X49862619Y19531391D01*
X49923095Y19773296D01*
X49983571Y19894248D01*
X50104523Y20015200D01*
X50285952Y20075677D01*
X50406904Y20075677D01*
X50588333Y20015200D01*
X50648809Y19954724D01*
X51555952Y20075677D02*
X51555952Y19168534D01*
X51495476Y18987105D01*
X51374523Y18866153D01*
X51193095Y18805677D01*
X51072142Y18805677D01*
X52765476Y18805677D02*
X52160714Y18805677D01*
X52160714Y20075677D01*
X53914523Y18926629D02*
X53854047Y18866153D01*
X53672619Y18805677D01*
X53551666Y18805677D01*
X53370238Y18866153D01*
X53249285Y18987105D01*
X53188809Y19108058D01*
X53128333Y19349962D01*
X53128333Y19531391D01*
X53188809Y19773296D01*
X53249285Y19894248D01*
X53370238Y20015200D01*
X53551666Y20075677D01*
X53672619Y20075677D01*
X53854047Y20015200D01*
X53914523Y19954724D01*
D10*
X20774285Y48141629D02*
X20060000Y48141629D01*
X19988571Y47427343D01*
X20060000Y47498772D01*
X20202857Y47570200D01*
X20560000Y47570200D01*
X20702857Y47498772D01*
X20774285Y47427343D01*
X20845714Y47284486D01*
X20845714Y46927343D01*
X20774285Y46784486D01*
X20702857Y46713058D01*
X20560000Y46641629D01*
X20202857Y46641629D01*
X20060000Y46713058D01*
X19988571Y46784486D01*
X22274285Y46641629D02*
X21417142Y46641629D01*
X21845714Y46641629D02*
X21845714Y48141629D01*
X21702857Y47927343D01*
X21560000Y47784486D01*
X21417142Y47713058D01*
X22845714Y47998772D02*
X22917142Y48070200D01*
X23060000Y48141629D01*
X23417142Y48141629D01*
X23560000Y48070200D01*
X23631428Y47998772D01*
X23702857Y47855915D01*
X23702857Y47713058D01*
X23631428Y47498772D01*
X22774285Y46641629D01*
X23702857Y46641629D01*
X24345714Y46641629D02*
X24345714Y48141629D01*
X25202857Y46641629D02*
X24560000Y47498772D01*
X25202857Y48141629D02*
X24345714Y47284486D01*
X25845714Y47213058D02*
X26988571Y47213058D01*
X26417142Y46641629D02*
X26417142Y47784486D01*
X28417142Y48141629D02*
X27702857Y48141629D01*
X27631428Y47427343D01*
X27702857Y47498772D01*
X27845714Y47570200D01*
X28202857Y47570200D01*
X28345714Y47498772D01*
X28417142Y47427343D01*
X28488571Y47284486D01*
X28488571Y46927343D01*
X28417142Y46784486D01*
X28345714Y46713058D01*
X28202857Y46641629D01*
X27845714Y46641629D01*
X27702857Y46713058D01*
X27631428Y46784486D01*
X29917142Y46641629D02*
X29060000Y46641629D01*
X29488571Y46641629D02*
X29488571Y48141629D01*
X29345714Y47927343D01*
X29202857Y47784486D01*
X29060000Y47713058D01*
X30488571Y47998772D02*
X30560000Y48070200D01*
X30702857Y48141629D01*
X31060000Y48141629D01*
X31202857Y48070200D01*
X31274285Y47998772D01*
X31345714Y47855915D01*
X31345714Y47713058D01*
X31274285Y47498772D01*
X30417142Y46641629D01*
X31345714Y46641629D01*
X31988571Y46641629D02*
X31988571Y48141629D01*
X32845714Y46641629D02*
X32202857Y47498772D01*
X32845714Y48141629D02*
X31988571Y47284486D01*
X35488571Y46641629D02*
X34988571Y47355915D01*
X34631428Y46641629D02*
X34631428Y48141629D01*
X35202857Y48141629D01*
X35345714Y48070200D01*
X35417142Y47998772D01*
X35488571Y47855915D01*
X35488571Y47641629D01*
X35417142Y47498772D01*
X35345714Y47427343D01*
X35202857Y47355915D01*
X34631428Y47355915D01*
X36060000Y47070200D02*
X36774285Y47070200D01*
X35917142Y46641629D02*
X36417142Y48141629D01*
X36917142Y46641629D01*
X37417142Y46641629D02*
X37417142Y48141629D01*
X37917142Y47070200D01*
X38417142Y48141629D01*
X38417142Y46641629D01*
X40202857Y48213058D02*
X38917142Y46284486D01*
X41560000Y46641629D02*
X41060000Y47355915D01*
X40702857Y46641629D02*
X40702857Y48141629D01*
X41274285Y48141629D01*
X41417142Y48070200D01*
X41488571Y47998772D01*
X41560000Y47855915D01*
X41560000Y47641629D01*
X41488571Y47498772D01*
X41417142Y47427343D01*
X41274285Y47355915D01*
X40702857Y47355915D01*
X42488571Y48141629D02*
X42774285Y48141629D01*
X42917142Y48070200D01*
X43060000Y47927343D01*
X43131428Y47641629D01*
X43131428Y47141629D01*
X43060000Y46855915D01*
X42917142Y46713058D01*
X42774285Y46641629D01*
X42488571Y46641629D01*
X42345714Y46713058D01*
X42202857Y46855915D01*
X42131428Y47141629D01*
X42131428Y47641629D01*
X42202857Y47927343D01*
X42345714Y48070200D01*
X42488571Y48141629D01*
X43774285Y46641629D02*
X43774285Y48141629D01*
X44274285Y47070200D01*
X44774285Y48141629D01*
X44774285Y46641629D01*
X47488571Y46784486D02*
X47417142Y46713058D01*
X47202857Y46641629D01*
X47060000Y46641629D01*
X46845714Y46713058D01*
X46702857Y46855915D01*
X46631428Y46998772D01*
X46560000Y47284486D01*
X46560000Y47498772D01*
X46631428Y47784486D01*
X46702857Y47927343D01*
X46845714Y48070200D01*
X47060000Y48141629D01*
X47202857Y48141629D01*
X47417142Y48070200D01*
X47488571Y47998772D01*
X48774285Y46641629D02*
X48774285Y47427343D01*
X48702857Y47570200D01*
X48560000Y47641629D01*
X48274285Y47641629D01*
X48131428Y47570200D01*
X48774285Y46713058D02*
X48631428Y46641629D01*
X48274285Y46641629D01*
X48131428Y46713058D01*
X48060000Y46855915D01*
X48060000Y46998772D01*
X48131428Y47141629D01*
X48274285Y47213058D01*
X48631428Y47213058D01*
X48774285Y47284486D01*
X49488571Y46641629D02*
X49488571Y47641629D01*
X49488571Y47355915D02*
X49560000Y47498772D01*
X49631428Y47570200D01*
X49774285Y47641629D01*
X49917142Y47641629D01*
X51060000Y46641629D02*
X51060000Y48141629D01*
X51060000Y46713058D02*
X50917142Y46641629D01*
X50631428Y46641629D01*
X50488571Y46713058D01*
X50417142Y46784486D01*
X50345714Y46927343D01*
X50345714Y47355915D01*
X50417142Y47498772D01*
X50488571Y47570200D01*
X50631428Y47641629D01*
X50917142Y47641629D01*
X51060000Y47570200D01*
X1613333Y-4991942D02*
X1613333Y-4277657D01*
X2039047Y-5134800D02*
X549047Y-4634800D01*
X2039047Y-4134800D01*
X2039047Y-2849085D02*
X2039047Y-3706228D01*
X2039047Y-3277657D02*
X549047Y-3277657D01*
X761904Y-3420514D01*
X903809Y-3563371D01*
X974761Y-3706228D01*
X549047Y-1491942D02*
X549047Y-2206228D01*
X1258571Y-2277657D01*
X1187619Y-2206228D01*
X1116666Y-2063371D01*
X1116666Y-1706228D01*
X1187619Y-1563371D01*
X1258571Y-1491942D01*
X1400476Y-1420514D01*
X1755238Y-1420514D01*
X1897142Y-1491942D01*
X1968095Y-1563371D01*
X2039047Y-1706228D01*
X2039047Y-2063371D01*
X1968095Y-2206228D01*
X1897142Y-2277657D01*
X4148333Y-4991942D02*
X4148333Y-4277657D01*
X4574047Y-5134800D02*
X3084047Y-4634800D01*
X4574047Y-4134800D01*
X4574047Y-2849085D02*
X4574047Y-3706228D01*
X4574047Y-3277657D02*
X3084047Y-3277657D01*
X3296904Y-3420514D01*
X3438809Y-3563371D01*
X3509761Y-3706228D01*
X3580714Y-1563371D02*
X4574047Y-1563371D01*
X3013095Y-1920514D02*
X4077380Y-2277657D01*
X4077380Y-1349085D01*
X6683333Y-4991942D02*
X6683333Y-4277657D01*
X7109047Y-5134800D02*
X5619047Y-4634800D01*
X7109047Y-4134800D01*
X7109047Y-2849085D02*
X7109047Y-3706228D01*
X7109047Y-3277657D02*
X5619047Y-3277657D01*
X5831904Y-3420514D01*
X5973809Y-3563371D01*
X6044761Y-3706228D01*
X5619047Y-2349085D02*
X5619047Y-1420514D01*
X6186666Y-1920514D01*
X6186666Y-1706228D01*
X6257619Y-1563371D01*
X6328571Y-1491942D01*
X6470476Y-1420514D01*
X6825238Y-1420514D01*
X6967142Y-1491942D01*
X7038095Y-1563371D01*
X7109047Y-1706228D01*
X7109047Y-2134800D01*
X7038095Y-2277657D01*
X6967142Y-2349085D01*
X9218333Y-4991942D02*
X9218333Y-4277657D01*
X9644047Y-5134800D02*
X8154047Y-4634800D01*
X9644047Y-4134800D01*
X9644047Y-2849085D02*
X9644047Y-3706228D01*
X9644047Y-3277657D02*
X8154047Y-3277657D01*
X8366904Y-3420514D01*
X8508809Y-3563371D01*
X8579761Y-3706228D01*
X8295952Y-2277657D02*
X8225000Y-2206228D01*
X8154047Y-2063371D01*
X8154047Y-1706228D01*
X8225000Y-1563371D01*
X8295952Y-1491942D01*
X8437857Y-1420514D01*
X8579761Y-1420514D01*
X8792619Y-1491942D01*
X9644047Y-2349085D01*
X9644047Y-1420514D01*
X11753333Y-4991942D02*
X11753333Y-4277657D01*
X12179047Y-5134800D02*
X10689047Y-4634800D01*
X12179047Y-4134800D01*
X12179047Y-2849085D02*
X12179047Y-3706228D01*
X12179047Y-3277657D02*
X10689047Y-3277657D01*
X10901904Y-3420514D01*
X11043809Y-3563371D01*
X11114761Y-3706228D01*
X12179047Y-1420514D02*
X12179047Y-2277657D01*
X12179047Y-1849085D02*
X10689047Y-1849085D01*
X10901904Y-1991942D01*
X11043809Y-2134800D01*
X11114761Y-2277657D01*
X14288333Y-4991942D02*
X14288333Y-4277657D01*
X14714047Y-5134800D02*
X13224047Y-4634800D01*
X14714047Y-4134800D01*
X14714047Y-2849085D02*
X14714047Y-3706228D01*
X14714047Y-3277657D02*
X13224047Y-3277657D01*
X13436904Y-3420514D01*
X13578809Y-3563371D01*
X13649761Y-3706228D01*
X13224047Y-1920514D02*
X13224047Y-1777657D01*
X13295000Y-1634800D01*
X13365952Y-1563371D01*
X13507857Y-1491942D01*
X13791666Y-1420514D01*
X14146428Y-1420514D01*
X14430238Y-1491942D01*
X14572142Y-1563371D01*
X14643095Y-1634800D01*
X14714047Y-1777657D01*
X14714047Y-1920514D01*
X14643095Y-2063371D01*
X14572142Y-2134800D01*
X14430238Y-2206228D01*
X14146428Y-2277657D01*
X13791666Y-2277657D01*
X13507857Y-2206228D01*
X13365952Y-2134800D01*
X13295000Y-2063371D01*
X13224047Y-1920514D01*
X16823333Y-3563371D02*
X16823333Y-2849085D01*
X17249047Y-3706228D02*
X15759047Y-3206228D01*
X17249047Y-2706228D01*
X17249047Y-2134800D02*
X17249047Y-1849085D01*
X17178095Y-1706228D01*
X17107142Y-1634800D01*
X16894285Y-1491942D01*
X16610476Y-1420514D01*
X16042857Y-1420514D01*
X15900952Y-1491942D01*
X15830000Y-1563371D01*
X15759047Y-1706228D01*
X15759047Y-1991942D01*
X15830000Y-2134800D01*
X15900952Y-2206228D01*
X16042857Y-2277657D01*
X16397619Y-2277657D01*
X16539523Y-2206228D01*
X16610476Y-2134800D01*
X16681428Y-1991942D01*
X16681428Y-1706228D01*
X16610476Y-1563371D01*
X16539523Y-1491942D01*
X16397619Y-1420514D01*
X19358333Y-3563371D02*
X19358333Y-2849085D01*
X19784047Y-3706228D02*
X18294047Y-3206228D01*
X19784047Y-2706228D01*
X18932619Y-1991942D02*
X18861666Y-2134800D01*
X18790714Y-2206228D01*
X18648809Y-2277657D01*
X18577857Y-2277657D01*
X18435952Y-2206228D01*
X18365000Y-2134800D01*
X18294047Y-1991942D01*
X18294047Y-1706228D01*
X18365000Y-1563371D01*
X18435952Y-1491942D01*
X18577857Y-1420514D01*
X18648809Y-1420514D01*
X18790714Y-1491942D01*
X18861666Y-1563371D01*
X18932619Y-1706228D01*
X18932619Y-1991942D01*
X19003571Y-2134800D01*
X19074523Y-2206228D01*
X19216428Y-2277657D01*
X19500238Y-2277657D01*
X19642142Y-2206228D01*
X19713095Y-2134800D01*
X19784047Y-1991942D01*
X19784047Y-1706228D01*
X19713095Y-1563371D01*
X19642142Y-1491942D01*
X19500238Y-1420514D01*
X19216428Y-1420514D01*
X19074523Y-1491942D01*
X19003571Y-1563371D01*
X18932619Y-1706228D01*
X21893333Y-3563371D02*
X21893333Y-2849085D01*
X22319047Y-3706228D02*
X20829047Y-3206228D01*
X22319047Y-2706228D01*
X20829047Y-2349085D02*
X20829047Y-1349085D01*
X22319047Y-1991942D01*
X24428333Y-3563371D02*
X24428333Y-2849085D01*
X24854047Y-3706228D02*
X23364047Y-3206228D01*
X24854047Y-2706228D01*
X23364047Y-1563371D02*
X23364047Y-1849085D01*
X23435000Y-1991942D01*
X23505952Y-2063371D01*
X23718809Y-2206228D01*
X24002619Y-2277657D01*
X24570238Y-2277657D01*
X24712142Y-2206228D01*
X24783095Y-2134800D01*
X24854047Y-1991942D01*
X24854047Y-1706228D01*
X24783095Y-1563371D01*
X24712142Y-1491942D01*
X24570238Y-1420514D01*
X24215476Y-1420514D01*
X24073571Y-1491942D01*
X24002619Y-1563371D01*
X23931666Y-1706228D01*
X23931666Y-1991942D01*
X24002619Y-2134800D01*
X24073571Y-2206228D01*
X24215476Y-2277657D01*
X26963333Y-3563371D02*
X26963333Y-2849085D01*
X27389047Y-3706228D02*
X25899047Y-3206228D01*
X27389047Y-2706228D01*
X25899047Y-1491942D02*
X25899047Y-2206228D01*
X26608571Y-2277657D01*
X26537619Y-2206228D01*
X26466666Y-2063371D01*
X26466666Y-1706228D01*
X26537619Y-1563371D01*
X26608571Y-1491942D01*
X26750476Y-1420514D01*
X27105238Y-1420514D01*
X27247142Y-1491942D01*
X27318095Y-1563371D01*
X27389047Y-1706228D01*
X27389047Y-2063371D01*
X27318095Y-2206228D01*
X27247142Y-2277657D01*
X29498333Y-3563371D02*
X29498333Y-2849085D01*
X29924047Y-3706228D02*
X28434047Y-3206228D01*
X29924047Y-2706228D01*
X28930714Y-1563371D02*
X29924047Y-1563371D01*
X28363095Y-1920514D02*
X29427380Y-2277657D01*
X29427380Y-1349085D01*
X32033333Y-3563371D02*
X32033333Y-2849085D01*
X32459047Y-3706228D02*
X30969047Y-3206228D01*
X32459047Y-2706228D01*
X30969047Y-2349085D02*
X30969047Y-1420514D01*
X31536666Y-1920514D01*
X31536666Y-1706228D01*
X31607619Y-1563371D01*
X31678571Y-1491942D01*
X31820476Y-1420514D01*
X32175238Y-1420514D01*
X32317142Y-1491942D01*
X32388095Y-1563371D01*
X32459047Y-1706228D01*
X32459047Y-2134800D01*
X32388095Y-2277657D01*
X32317142Y-2349085D01*
X34568333Y-3563371D02*
X34568333Y-2849085D01*
X34994047Y-3706228D02*
X33504047Y-3206228D01*
X34994047Y-2706228D01*
X33645952Y-2277657D02*
X33575000Y-2206228D01*
X33504047Y-2063371D01*
X33504047Y-1706228D01*
X33575000Y-1563371D01*
X33645952Y-1491942D01*
X33787857Y-1420514D01*
X33929761Y-1420514D01*
X34142619Y-1491942D01*
X34994047Y-2349085D01*
X34994047Y-1420514D01*
X37103333Y-3563371D02*
X37103333Y-2849085D01*
X37529047Y-3706228D02*
X36039047Y-3206228D01*
X37529047Y-2706228D01*
X37529047Y-1420514D02*
X37529047Y-2277657D01*
X37529047Y-1849085D02*
X36039047Y-1849085D01*
X36251904Y-1991942D01*
X36393809Y-2134800D01*
X36464761Y-2277657D01*
X39638333Y-3563371D02*
X39638333Y-2849085D01*
X40064047Y-3706228D02*
X38574047Y-3206228D01*
X40064047Y-2706228D01*
X38574047Y-1920514D02*
X38574047Y-1777657D01*
X38645000Y-1634800D01*
X38715952Y-1563371D01*
X38857857Y-1491942D01*
X39141666Y-1420514D01*
X39496428Y-1420514D01*
X39780238Y-1491942D01*
X39922142Y-1563371D01*
X39993095Y-1634800D01*
X40064047Y-1777657D01*
X40064047Y-1920514D01*
X39993095Y-2063371D01*
X39922142Y-2134800D01*
X39780238Y-2206228D01*
X39496428Y-2277657D01*
X39141666Y-2277657D01*
X38857857Y-2206228D01*
X38715952Y-2134800D01*
X38645000Y-2063371D01*
X38574047Y-1920514D01*
X41180000Y-4206228D02*
X41109047Y-4349085D01*
X41109047Y-4563371D01*
X41180000Y-4777657D01*
X41321904Y-4920514D01*
X41463809Y-4991942D01*
X41747619Y-5063371D01*
X41960476Y-5063371D01*
X42244285Y-4991942D01*
X42386190Y-4920514D01*
X42528095Y-4777657D01*
X42599047Y-4563371D01*
X42599047Y-4420514D01*
X42528095Y-4206228D01*
X42457142Y-4134800D01*
X41960476Y-4134800D01*
X41960476Y-4420514D01*
X41605714Y-3491942D02*
X42599047Y-3491942D01*
X41747619Y-3491942D02*
X41676666Y-3420514D01*
X41605714Y-3277657D01*
X41605714Y-3063371D01*
X41676666Y-2920514D01*
X41818571Y-2849085D01*
X42599047Y-2849085D01*
X42599047Y-1491942D02*
X41109047Y-1491942D01*
X42528095Y-1491942D02*
X42599047Y-1634800D01*
X42599047Y-1920514D01*
X42528095Y-2063371D01*
X42457142Y-2134800D01*
X42315238Y-2206228D01*
X41889523Y-2206228D01*
X41747619Y-2134800D01*
X41676666Y-2063371D01*
X41605714Y-1920514D01*
X41605714Y-1634800D01*
X41676666Y-1491942D01*
X43644047Y-2634800D02*
X43644047Y-3349085D01*
X44353571Y-3420514D01*
X44282619Y-3349085D01*
X44211666Y-3206228D01*
X44211666Y-2849085D01*
X44282619Y-2706228D01*
X44353571Y-2634800D01*
X44495476Y-2563371D01*
X44850238Y-2563371D01*
X44992142Y-2634800D01*
X45063095Y-2706228D01*
X45134047Y-2849085D01*
X45134047Y-3206228D01*
X45063095Y-3349085D01*
X44992142Y-3420514D01*
X44140714Y-2063371D02*
X45134047Y-1706228D01*
X44140714Y-1349085D01*
X47669047Y-3920514D02*
X46179047Y-3920514D01*
X47243333Y-3420514D01*
X46179047Y-2920514D01*
X47669047Y-2920514D01*
X47669047Y-1420514D02*
X47669047Y-2277657D01*
X47669047Y-1849085D02*
X46179047Y-1849085D01*
X46391904Y-1991942D01*
X46533809Y-2134800D01*
X46604761Y-2277657D01*
X50204047Y-6063371D02*
X49494523Y-6563371D01*
X50204047Y-6920514D02*
X48714047Y-6920514D01*
X48714047Y-6349085D01*
X48785000Y-6206228D01*
X48855952Y-6134800D01*
X48997857Y-6063371D01*
X49210714Y-6063371D01*
X49352619Y-6134800D01*
X49423571Y-6206228D01*
X49494523Y-6349085D01*
X49494523Y-6920514D01*
X50133095Y-4849085D02*
X50204047Y-4991942D01*
X50204047Y-5277657D01*
X50133095Y-5420514D01*
X49991190Y-5491942D01*
X49423571Y-5491942D01*
X49281666Y-5420514D01*
X49210714Y-5277657D01*
X49210714Y-4991942D01*
X49281666Y-4849085D01*
X49423571Y-4777657D01*
X49565476Y-4777657D01*
X49707380Y-5491942D01*
X50133095Y-4206228D02*
X50204047Y-4063371D01*
X50204047Y-3777657D01*
X50133095Y-3634800D01*
X49991190Y-3563371D01*
X49920238Y-3563371D01*
X49778333Y-3634800D01*
X49707380Y-3777657D01*
X49707380Y-3991942D01*
X49636428Y-4134800D01*
X49494523Y-4206228D01*
X49423571Y-4206228D01*
X49281666Y-4134800D01*
X49210714Y-3991942D01*
X49210714Y-3777657D01*
X49281666Y-3634800D01*
X50133095Y-2349085D02*
X50204047Y-2491942D01*
X50204047Y-2777657D01*
X50133095Y-2920514D01*
X49991190Y-2991942D01*
X49423571Y-2991942D01*
X49281666Y-2920514D01*
X49210714Y-2777657D01*
X49210714Y-2491942D01*
X49281666Y-2349085D01*
X49423571Y-2277657D01*
X49565476Y-2277657D01*
X49707380Y-2991942D01*
X49210714Y-1849085D02*
X49210714Y-1277657D01*
X48714047Y-1634800D02*
X49991190Y-1634800D01*
X50133095Y-1563371D01*
X50204047Y-1420514D01*
X50204047Y-1277657D01*
X52597142Y-6063371D02*
X52668095Y-6134800D01*
X52739047Y-6349085D01*
X52739047Y-6491942D01*
X52668095Y-6706228D01*
X52526190Y-6849085D01*
X52384285Y-6920514D01*
X52100476Y-6991942D01*
X51887619Y-6991942D01*
X51603809Y-6920514D01*
X51461904Y-6849085D01*
X51320000Y-6706228D01*
X51249047Y-6491942D01*
X51249047Y-6349085D01*
X51320000Y-6134800D01*
X51390952Y-6063371D01*
X52739047Y-5206228D02*
X52668095Y-5349085D01*
X52526190Y-5420514D01*
X51249047Y-5420514D01*
X52739047Y-4420514D02*
X52668095Y-4563371D01*
X52597142Y-4634800D01*
X52455238Y-4706228D01*
X52029523Y-4706228D01*
X51887619Y-4634800D01*
X51816666Y-4563371D01*
X51745714Y-4420514D01*
X51745714Y-4206228D01*
X51816666Y-4063371D01*
X51887619Y-3991942D01*
X52029523Y-3920514D01*
X52455238Y-3920514D01*
X52597142Y-3991942D01*
X52668095Y-4063371D01*
X52739047Y-4206228D01*
X52739047Y-4420514D01*
X52668095Y-2634800D02*
X52739047Y-2777657D01*
X52739047Y-3063371D01*
X52668095Y-3206228D01*
X52597142Y-3277657D01*
X52455238Y-3349085D01*
X52029523Y-3349085D01*
X51887619Y-3277657D01*
X51816666Y-3206228D01*
X51745714Y-3063371D01*
X51745714Y-2777657D01*
X51816666Y-2634800D01*
X52739047Y-1991942D02*
X51249047Y-1991942D01*
X52171428Y-1849085D02*
X52739047Y-1420514D01*
X51745714Y-1420514D02*
X52313333Y-1991942D01*
X55274047Y-4206228D02*
X53784047Y-4206228D01*
X55274047Y-3491942D02*
X53784047Y-3491942D01*
X55274047Y-2634800D01*
X53784047Y-2634800D01*
X53784047Y-2134800D02*
X53784047Y-1277657D01*
X55274047Y-1706228D02*
X53784047Y-1706228D01*
X57809047Y-6063371D02*
X56319047Y-6063371D01*
X57383333Y-5563371D01*
X56319047Y-5063371D01*
X57809047Y-5063371D01*
X57809047Y-4349085D02*
X56815714Y-4349085D01*
X57099523Y-4349085D02*
X56957619Y-4277657D01*
X56886666Y-4206228D01*
X56815714Y-4063371D01*
X56815714Y-3920514D01*
X57738095Y-2849085D02*
X57809047Y-2991942D01*
X57809047Y-3277657D01*
X57738095Y-3420514D01*
X57596190Y-3491942D01*
X57028571Y-3491942D01*
X56886666Y-3420514D01*
X56815714Y-3277657D01*
X56815714Y-2991942D01*
X56886666Y-2849085D01*
X57028571Y-2777657D01*
X57170476Y-2777657D01*
X57312380Y-3491942D01*
X56815714Y-1491942D02*
X58305714Y-1491942D01*
X57738095Y-1491942D02*
X57809047Y-1634800D01*
X57809047Y-1920514D01*
X57738095Y-2063371D01*
X57667142Y-2134800D01*
X57525238Y-2206228D01*
X57099523Y-2206228D01*
X56957619Y-2134800D01*
X56886666Y-2063371D01*
X56815714Y-1920514D01*
X56815714Y-1634800D01*
X56886666Y-1491942D01*
X58854047Y-3563371D02*
X60344047Y-3206228D01*
X59279761Y-2920514D01*
X60344047Y-2634800D01*
X58854047Y-2277657D01*
X60344047Y-1706228D02*
X59350714Y-1706228D01*
X59634523Y-1706228D02*
X59492619Y-1634800D01*
X59421666Y-1563371D01*
X59350714Y-1420514D01*
X59350714Y-1277657D01*
X62879047Y-2777657D02*
X62169523Y-3277657D01*
X62879047Y-3634800D02*
X61389047Y-3634800D01*
X61389047Y-3063371D01*
X61460000Y-2920514D01*
X61530952Y-2849085D01*
X61672857Y-2777657D01*
X61885714Y-2777657D01*
X62027619Y-2849085D01*
X62098571Y-2920514D01*
X62169523Y-3063371D01*
X62169523Y-3634800D01*
X62879047Y-1920514D02*
X62808095Y-2063371D01*
X62737142Y-2134800D01*
X62595238Y-2206228D01*
X62169523Y-2206228D01*
X62027619Y-2134800D01*
X61956666Y-2063371D01*
X61885714Y-1920514D01*
X61885714Y-1706228D01*
X61956666Y-1563371D01*
X62027619Y-1491942D01*
X62169523Y-1420514D01*
X62595238Y-1420514D01*
X62737142Y-1491942D01*
X62808095Y-1563371D01*
X62879047Y-1706228D01*
X62879047Y-1920514D01*
X65414047Y-6134800D02*
X63924047Y-6134800D01*
X63924047Y-5134800D02*
X63924047Y-4849085D01*
X63995000Y-4706228D01*
X64136904Y-4563371D01*
X64420714Y-4491942D01*
X64917380Y-4491942D01*
X65201190Y-4563371D01*
X65343095Y-4706228D01*
X65414047Y-4849085D01*
X65414047Y-5134800D01*
X65343095Y-5277657D01*
X65201190Y-5420514D01*
X64917380Y-5491942D01*
X64420714Y-5491942D01*
X64136904Y-5420514D01*
X63995000Y-5277657D01*
X63924047Y-5134800D01*
X65414047Y-2991942D02*
X64704523Y-3491942D01*
X65414047Y-3849085D02*
X63924047Y-3849085D01*
X63924047Y-3277657D01*
X63995000Y-3134800D01*
X64065952Y-3063371D01*
X64207857Y-2991942D01*
X64420714Y-2991942D01*
X64562619Y-3063371D01*
X64633571Y-3134800D01*
X64704523Y-3277657D01*
X64704523Y-3849085D01*
X65555952Y-1349085D02*
X65485000Y-1491942D01*
X65343095Y-1634800D01*
X65130238Y-1849085D01*
X65059285Y-1991942D01*
X65059285Y-2134800D01*
X65414047Y-2063371D02*
X65343095Y-2206228D01*
X65201190Y-2349085D01*
X64917380Y-2420514D01*
X64420714Y-2420514D01*
X64136904Y-2349085D01*
X63995000Y-2206228D01*
X63924047Y-2063371D01*
X63924047Y-1777657D01*
X63995000Y-1634800D01*
X64136904Y-1491942D01*
X64420714Y-1420514D01*
X64917380Y-1420514D01*
X65201190Y-1491942D01*
X65343095Y-1634800D01*
X65414047Y-1777657D01*
X65414047Y-2063371D01*
X67949047Y-3706228D02*
X66459047Y-3706228D01*
X66459047Y-3349085D01*
X66530000Y-3134800D01*
X66671904Y-2991942D01*
X66813809Y-2920514D01*
X67097619Y-2849085D01*
X67310476Y-2849085D01*
X67594285Y-2920514D01*
X67736190Y-2991942D01*
X67878095Y-3134800D01*
X67949047Y-3349085D01*
X67949047Y-3706228D01*
X66459047Y-1920514D02*
X66459047Y-1777657D01*
X66530000Y-1634800D01*
X66600952Y-1563371D01*
X66742857Y-1491942D01*
X67026666Y-1420514D01*
X67381428Y-1420514D01*
X67665238Y-1491942D01*
X67807142Y-1563371D01*
X67878095Y-1634800D01*
X67949047Y-1777657D01*
X67949047Y-1920514D01*
X67878095Y-2063371D01*
X67807142Y-2134800D01*
X67665238Y-2206228D01*
X67381428Y-2277657D01*
X67026666Y-2277657D01*
X66742857Y-2206228D01*
X66600952Y-2134800D01*
X66530000Y-2063371D01*
X66459047Y-1920514D01*
X70484047Y-3706228D02*
X68994047Y-3706228D01*
X68994047Y-3349085D01*
X69065000Y-3134800D01*
X69206904Y-2991942D01*
X69348809Y-2920514D01*
X69632619Y-2849085D01*
X69845476Y-2849085D01*
X70129285Y-2920514D01*
X70271190Y-2991942D01*
X70413095Y-3134800D01*
X70484047Y-3349085D01*
X70484047Y-3706228D01*
X70484047Y-1420514D02*
X70484047Y-2277657D01*
X70484047Y-1849085D02*
X68994047Y-1849085D01*
X69206904Y-1991942D01*
X69348809Y-2134800D01*
X69419761Y-2277657D01*
X73019047Y-3706228D02*
X71529047Y-3706228D01*
X71529047Y-3349085D01*
X71600000Y-3134800D01*
X71741904Y-2991942D01*
X71883809Y-2920514D01*
X72167619Y-2849085D01*
X72380476Y-2849085D01*
X72664285Y-2920514D01*
X72806190Y-2991942D01*
X72948095Y-3134800D01*
X73019047Y-3349085D01*
X73019047Y-3706228D01*
X71670952Y-2277657D02*
X71600000Y-2206228D01*
X71529047Y-2063371D01*
X71529047Y-1706228D01*
X71600000Y-1563371D01*
X71670952Y-1491942D01*
X71812857Y-1420514D01*
X71954761Y-1420514D01*
X72167619Y-1491942D01*
X73019047Y-2349085D01*
X73019047Y-1420514D01*
X75554047Y-3706228D02*
X74064047Y-3706228D01*
X74064047Y-3349085D01*
X74135000Y-3134800D01*
X74276904Y-2991942D01*
X74418809Y-2920514D01*
X74702619Y-2849085D01*
X74915476Y-2849085D01*
X75199285Y-2920514D01*
X75341190Y-2991942D01*
X75483095Y-3134800D01*
X75554047Y-3349085D01*
X75554047Y-3706228D01*
X74064047Y-2349085D02*
X74064047Y-1420514D01*
X74631666Y-1920514D01*
X74631666Y-1706228D01*
X74702619Y-1563371D01*
X74773571Y-1491942D01*
X74915476Y-1420514D01*
X75270238Y-1420514D01*
X75412142Y-1491942D01*
X75483095Y-1563371D01*
X75554047Y-1706228D01*
X75554047Y-2134800D01*
X75483095Y-2277657D01*
X75412142Y-2349085D01*
X78089047Y-3706228D02*
X76599047Y-3706228D01*
X76599047Y-3349085D01*
X76670000Y-3134800D01*
X76811904Y-2991942D01*
X76953809Y-2920514D01*
X77237619Y-2849085D01*
X77450476Y-2849085D01*
X77734285Y-2920514D01*
X77876190Y-2991942D01*
X78018095Y-3134800D01*
X78089047Y-3349085D01*
X78089047Y-3706228D01*
X77095714Y-1563371D02*
X78089047Y-1563371D01*
X76528095Y-1920514D02*
X77592380Y-2277657D01*
X77592380Y-1349085D01*
X80624047Y-3706228D02*
X79134047Y-3706228D01*
X79134047Y-3349085D01*
X79205000Y-3134800D01*
X79346904Y-2991942D01*
X79488809Y-2920514D01*
X79772619Y-2849085D01*
X79985476Y-2849085D01*
X80269285Y-2920514D01*
X80411190Y-2991942D01*
X80553095Y-3134800D01*
X80624047Y-3349085D01*
X80624047Y-3706228D01*
X79134047Y-1491942D02*
X79134047Y-2206228D01*
X79843571Y-2277657D01*
X79772619Y-2206228D01*
X79701666Y-2063371D01*
X79701666Y-1706228D01*
X79772619Y-1563371D01*
X79843571Y-1491942D01*
X79985476Y-1420514D01*
X80340238Y-1420514D01*
X80482142Y-1491942D01*
X80553095Y-1563371D01*
X80624047Y-1706228D01*
X80624047Y-2063371D01*
X80553095Y-2206228D01*
X80482142Y-2277657D01*
X83159047Y-3706228D02*
X81669047Y-3706228D01*
X81669047Y-3349085D01*
X81740000Y-3134800D01*
X81881904Y-2991942D01*
X82023809Y-2920514D01*
X82307619Y-2849085D01*
X82520476Y-2849085D01*
X82804285Y-2920514D01*
X82946190Y-2991942D01*
X83088095Y-3134800D01*
X83159047Y-3349085D01*
X83159047Y-3706228D01*
X81669047Y-1563371D02*
X81669047Y-1849085D01*
X81740000Y-1991942D01*
X81810952Y-2063371D01*
X82023809Y-2206228D01*
X82307619Y-2277657D01*
X82875238Y-2277657D01*
X83017142Y-2206228D01*
X83088095Y-2134800D01*
X83159047Y-1991942D01*
X83159047Y-1706228D01*
X83088095Y-1563371D01*
X83017142Y-1491942D01*
X82875238Y-1420514D01*
X82520476Y-1420514D01*
X82378571Y-1491942D01*
X82307619Y-1563371D01*
X82236666Y-1706228D01*
X82236666Y-1991942D01*
X82307619Y-2134800D01*
X82378571Y-2206228D01*
X82520476Y-2277657D01*
X85694047Y-3706228D02*
X84204047Y-3706228D01*
X84204047Y-3349085D01*
X84275000Y-3134800D01*
X84416904Y-2991942D01*
X84558809Y-2920514D01*
X84842619Y-2849085D01*
X85055476Y-2849085D01*
X85339285Y-2920514D01*
X85481190Y-2991942D01*
X85623095Y-3134800D01*
X85694047Y-3349085D01*
X85694047Y-3706228D01*
X84204047Y-2349085D02*
X84204047Y-1349085D01*
X85694047Y-1991942D01*
X86739047Y-3349085D02*
X86739047Y-2491942D01*
X88229047Y-2920514D02*
X86739047Y-2920514D01*
X88229047Y-2134800D02*
X87235714Y-1349085D01*
X87235714Y-2134800D02*
X88229047Y-1349085D01*
X90764047Y-2634800D02*
X90054523Y-3134800D01*
X90764047Y-3491942D02*
X89274047Y-3491942D01*
X89274047Y-2920514D01*
X89345000Y-2777657D01*
X89415952Y-2706228D01*
X89557857Y-2634800D01*
X89770714Y-2634800D01*
X89912619Y-2706228D01*
X89983571Y-2777657D01*
X90054523Y-2920514D01*
X90054523Y-3491942D01*
X90764047Y-2134800D02*
X89770714Y-1349085D01*
X89770714Y-2134800D02*
X90764047Y-1349085D01*
X91809047Y-6706228D02*
X93015238Y-6706228D01*
X93157142Y-6634800D01*
X93228095Y-6563371D01*
X93299047Y-6420514D01*
X93299047Y-6134800D01*
X93228095Y-5991942D01*
X93157142Y-5920514D01*
X93015238Y-5849085D01*
X91809047Y-5849085D01*
X93228095Y-5206228D02*
X93299047Y-4991942D01*
X93299047Y-4634800D01*
X93228095Y-4491942D01*
X93157142Y-4420514D01*
X93015238Y-4349085D01*
X92873333Y-4349085D01*
X92731428Y-4420514D01*
X92660476Y-4491942D01*
X92589523Y-4634800D01*
X92518571Y-4920514D01*
X92447619Y-5063371D01*
X92376666Y-5134800D01*
X92234761Y-5206228D01*
X92092857Y-5206228D01*
X91950952Y-5134800D01*
X91880000Y-5063371D01*
X91809047Y-4920514D01*
X91809047Y-4563371D01*
X91880000Y-4349085D01*
X93299047Y-2849085D02*
X92589523Y-3349085D01*
X93299047Y-3706228D02*
X91809047Y-3706228D01*
X91809047Y-3134800D01*
X91880000Y-2991942D01*
X91950952Y-2920514D01*
X92092857Y-2849085D01*
X92305714Y-2849085D01*
X92447619Y-2920514D01*
X92518571Y-2991942D01*
X92589523Y-3134800D01*
X92589523Y-3706228D01*
X93299047Y-1420514D02*
X93299047Y-2277657D01*
X93299047Y-1849085D02*
X91809047Y-1849085D01*
X92021904Y-1991942D01*
X92163809Y-2134800D01*
X92234761Y-2277657D01*
X94344047Y-6706228D02*
X95550238Y-6706228D01*
X95692142Y-6634800D01*
X95763095Y-6563371D01*
X95834047Y-6420514D01*
X95834047Y-6134800D01*
X95763095Y-5991942D01*
X95692142Y-5920514D01*
X95550238Y-5849085D01*
X94344047Y-5849085D01*
X95763095Y-5206228D02*
X95834047Y-4991942D01*
X95834047Y-4634800D01*
X95763095Y-4491942D01*
X95692142Y-4420514D01*
X95550238Y-4349085D01*
X95408333Y-4349085D01*
X95266428Y-4420514D01*
X95195476Y-4491942D01*
X95124523Y-4634800D01*
X95053571Y-4920514D01*
X94982619Y-5063371D01*
X94911666Y-5134800D01*
X94769761Y-5206228D01*
X94627857Y-5206228D01*
X94485952Y-5134800D01*
X94415000Y-5063371D01*
X94344047Y-4920514D01*
X94344047Y-4563371D01*
X94415000Y-4349085D01*
X95834047Y-2849085D02*
X95124523Y-3349085D01*
X95834047Y-3706228D02*
X94344047Y-3706228D01*
X94344047Y-3134800D01*
X94415000Y-2991942D01*
X94485952Y-2920514D01*
X94627857Y-2849085D01*
X94840714Y-2849085D01*
X94982619Y-2920514D01*
X95053571Y-2991942D01*
X95124523Y-3134800D01*
X95124523Y-3706228D01*
X94485952Y-2277657D02*
X94415000Y-2206228D01*
X94344047Y-2063371D01*
X94344047Y-1706228D01*
X94415000Y-1563371D01*
X94485952Y-1491942D01*
X94627857Y-1420514D01*
X94769761Y-1420514D01*
X94982619Y-1491942D01*
X95834047Y-2349085D01*
X95834047Y-1420514D01*
X96879047Y-6706228D02*
X98085238Y-6706228D01*
X98227142Y-6634800D01*
X98298095Y-6563371D01*
X98369047Y-6420514D01*
X98369047Y-6134800D01*
X98298095Y-5991942D01*
X98227142Y-5920514D01*
X98085238Y-5849085D01*
X96879047Y-5849085D01*
X98298095Y-5206228D02*
X98369047Y-4991942D01*
X98369047Y-4634800D01*
X98298095Y-4491942D01*
X98227142Y-4420514D01*
X98085238Y-4349085D01*
X97943333Y-4349085D01*
X97801428Y-4420514D01*
X97730476Y-4491942D01*
X97659523Y-4634800D01*
X97588571Y-4920514D01*
X97517619Y-5063371D01*
X97446666Y-5134800D01*
X97304761Y-5206228D01*
X97162857Y-5206228D01*
X97020952Y-5134800D01*
X96950000Y-5063371D01*
X96879047Y-4920514D01*
X96879047Y-4563371D01*
X96950000Y-4349085D01*
X98369047Y-2849085D02*
X97659523Y-3349085D01*
X98369047Y-3706228D02*
X96879047Y-3706228D01*
X96879047Y-3134800D01*
X96950000Y-2991942D01*
X97020952Y-2920514D01*
X97162857Y-2849085D01*
X97375714Y-2849085D01*
X97517619Y-2920514D01*
X97588571Y-2991942D01*
X97659523Y-3134800D01*
X97659523Y-3706228D01*
X96879047Y-2349085D02*
X96879047Y-1420514D01*
X97446666Y-1920514D01*
X97446666Y-1706228D01*
X97517619Y-1563371D01*
X97588571Y-1491942D01*
X97730476Y-1420514D01*
X98085238Y-1420514D01*
X98227142Y-1491942D01*
X98298095Y-1563371D01*
X98369047Y-1706228D01*
X98369047Y-2134800D01*
X98298095Y-2277657D01*
X98227142Y-2349085D01*
D12*
X2743200Y5265420D02*
X2743200Y233680D01*
X1173480Y5265420D02*
X2743200Y5265420D01*
X-7620Y4084320D02*
X1173480Y5265420D01*
X-7620Y233680D02*
X-7620Y4084320D01*
D10*
X2207651Y4568772D02*
X2207651Y3711629D01*
X2207651Y4140200D02*
X707651Y4140200D01*
X921937Y3997343D01*
X1064794Y3854486D01*
X1136222Y3711629D01*
D13*
%TO.C,J1*%
X99120000Y270200D02*
X99120000Y2930200D01*
X2540000Y270200D02*
X99120000Y270200D01*
X2540000Y2930200D02*
X99120000Y2930200D01*
X2540000Y270200D02*
X2540000Y2930200D01*
X1270000Y270200D02*
X-60000Y270200D01*
X-60000Y270200D02*
X-60000Y1600200D01*
%TO.C,U1*%
X13910000Y41950200D02*
X13910000Y36890200D01*
X54670000Y41950200D02*
X13910000Y41950200D01*
X54670000Y29830200D02*
X54670000Y41950200D01*
X13910000Y29830200D02*
X54670000Y29830200D01*
X13910000Y34890200D02*
X13910000Y29830200D01*
X13910000Y36890200D02*
G75*
G02*
X13910000Y34890200I0J-1000000D01*
G01*
%TO.C,U5*%
X62170000Y26710200D02*
X62170000Y25460200D01*
X80070000Y26710200D02*
X62170000Y26710200D01*
X80070000Y22210200D02*
X80070000Y26710200D01*
X62170000Y22210200D02*
X80070000Y22210200D01*
X62170000Y23460200D02*
X62170000Y22210200D01*
X62170000Y25460200D02*
G75*
G02*
X62170000Y23460200I0J-1000000D01*
G01*
%TO.C,U4*%
X60900000Y9490200D02*
X60900000Y8240200D01*
X60900000Y8240200D02*
X81340000Y8240200D01*
X81340000Y8240200D02*
X81340000Y12740200D01*
X81340000Y12740200D02*
X60900000Y12740200D01*
X60900000Y12740200D02*
X60900000Y11490200D01*
X60900000Y11490200D02*
G75*
G02*
X60900000Y9490200I0J-1000000D01*
G01*
%TO.C,U3*%
X8600000Y28330200D02*
X7350000Y28330200D01*
X8600000Y7890200D02*
X8600000Y28330200D01*
X4100000Y7890200D02*
X8600000Y7890200D01*
X4100000Y28330200D02*
X4100000Y7890200D01*
X5350000Y28330200D02*
X4100000Y28330200D01*
X7350000Y28330200D02*
G75*
G02*
X5350000Y28330200I-1000000J0D01*
G01*
%TO.C,U6*%
X60900000Y37430200D02*
X60900000Y36180200D01*
X60900000Y36180200D02*
X81340000Y36180200D01*
X81340000Y36180200D02*
X81340000Y40680200D01*
X81340000Y40680200D02*
X60900000Y40680200D01*
X60900000Y40680200D02*
X60900000Y39430200D01*
X60900000Y39430200D02*
G75*
G02*
X60900000Y37430200I0J-1000000D01*
G01*
%TO.C,C6*%
X62851000Y45700200D02*
X64109000Y45700200D01*
X62851000Y43860200D02*
X64109000Y43860200D01*
%TO.C,U2*%
X13910000Y13300200D02*
X13910000Y8240200D01*
X13910000Y8240200D02*
X54670000Y8240200D01*
X54670000Y8240200D02*
X54670000Y20360200D01*
X54670000Y20360200D02*
X13910000Y20360200D01*
X13910000Y20360200D02*
X13910000Y15300200D01*
X13910000Y15300200D02*
G75*
G02*
X13910000Y13300200I0J-1000000D01*
G01*
%TO.C,C5*%
X65379000Y29890200D02*
X64121000Y29890200D01*
X65379000Y31730200D02*
X64121000Y31730200D01*
%TO.C,C4*%
X64109000Y15920200D02*
X62851000Y15920200D01*
X64109000Y17760200D02*
X62851000Y17760200D01*
%TO.C,C3*%
X8281000Y28620200D02*
X9539000Y28620200D01*
X8281000Y30460200D02*
X9539000Y30460200D01*
%TO.C,C2*%
X15861000Y25380200D02*
X17119000Y25380200D01*
X15861000Y23540200D02*
X17119000Y23540200D01*
%TO.C,C1*%
X15861000Y46970200D02*
X17119000Y46970200D01*
X15861000Y45130200D02*
X17119000Y45130200D01*
%TD*%
D14*
%TO.C,*%
X6630000Y33350200D02*
G75*
G03*
X6630000Y33350200I-1550000J0D01*
G01*
%TD*%
%TO.C,U1*%
D11*
X12362380Y35128296D02*
X13171904Y35128296D01*
X13267142Y35175915D01*
X13314761Y35223534D01*
X13362380Y35318772D01*
X13362380Y35509248D01*
X13314761Y35604486D01*
X13267142Y35652105D01*
X13171904Y35699724D01*
X12362380Y35699724D01*
X13362380Y36699724D02*
X13362380Y36128296D01*
X13362380Y36414010D02*
X12362380Y36414010D01*
X12505238Y36318772D01*
X12600476Y36223534D01*
X12648095Y36128296D01*
X40021428Y35485439D02*
X40164285Y35437820D01*
X40402380Y35437820D01*
X40497619Y35485439D01*
X40545238Y35533058D01*
X40592857Y35628296D01*
X40592857Y35723534D01*
X40545238Y35818772D01*
X40497619Y35866391D01*
X40402380Y35914010D01*
X40211904Y35961629D01*
X40116666Y36009248D01*
X40069047Y36056867D01*
X40021428Y36152105D01*
X40021428Y36247343D01*
X40069047Y36342581D01*
X40116666Y36390200D01*
X40211904Y36437820D01*
X40450000Y36437820D01*
X40592857Y36390200D01*
X40973809Y35485439D02*
X41116666Y35437820D01*
X41354761Y35437820D01*
X41450000Y35485439D01*
X41497619Y35533058D01*
X41545238Y35628296D01*
X41545238Y35723534D01*
X41497619Y35818772D01*
X41450000Y35866391D01*
X41354761Y35914010D01*
X41164285Y35961629D01*
X41069047Y36009248D01*
X41021428Y36056867D01*
X40973809Y36152105D01*
X40973809Y36247343D01*
X41021428Y36342581D01*
X41069047Y36390200D01*
X41164285Y36437820D01*
X41402380Y36437820D01*
X41545238Y36390200D01*
X41830952Y36437820D02*
X42402380Y36437820D01*
X42116666Y35437820D02*
X42116666Y36437820D01*
X42640476Y36437820D02*
X43259523Y36437820D01*
X42926190Y36056867D01*
X43069047Y36056867D01*
X43164285Y36009248D01*
X43211904Y35961629D01*
X43259523Y35866391D01*
X43259523Y35628296D01*
X43211904Y35533058D01*
X43164285Y35485439D01*
X43069047Y35437820D01*
X42783333Y35437820D01*
X42688095Y35485439D01*
X42640476Y35533058D01*
X43735714Y35437820D02*
X43926190Y35437820D01*
X44021428Y35485439D01*
X44069047Y35533058D01*
X44164285Y35675915D01*
X44211904Y35866391D01*
X44211904Y36247343D01*
X44164285Y36342581D01*
X44116666Y36390200D01*
X44021428Y36437820D01*
X43830952Y36437820D01*
X43735714Y36390200D01*
X43688095Y36342581D01*
X43640476Y36247343D01*
X43640476Y36009248D01*
X43688095Y35914010D01*
X43735714Y35866391D01*
X43830952Y35818772D01*
X44021428Y35818772D01*
X44116666Y35866391D01*
X44164285Y35914010D01*
X44211904Y36009248D01*
X44592857Y35485439D02*
X44735714Y35437820D01*
X44973809Y35437820D01*
X45069047Y35485439D01*
X45116666Y35533058D01*
X45164285Y35628296D01*
X45164285Y35723534D01*
X45116666Y35818772D01*
X45069047Y35866391D01*
X44973809Y35914010D01*
X44783333Y35961629D01*
X44688095Y36009248D01*
X44640476Y36056867D01*
X44592857Y36152105D01*
X44592857Y36247343D01*
X44640476Y36342581D01*
X44688095Y36390200D01*
X44783333Y36437820D01*
X45021428Y36437820D01*
X45164285Y36390200D01*
X45926190Y35961629D02*
X45592857Y35961629D01*
X45592857Y35437820D02*
X45592857Y36437820D01*
X46069047Y36437820D01*
X46640476Y36437820D02*
X46735714Y36437820D01*
X46830952Y36390200D01*
X46878571Y36342581D01*
X46926190Y36247343D01*
X46973809Y36056867D01*
X46973809Y35818772D01*
X46926190Y35628296D01*
X46878571Y35533058D01*
X46830952Y35485439D01*
X46735714Y35437820D01*
X46640476Y35437820D01*
X46545238Y35485439D01*
X46497619Y35533058D01*
X46450000Y35628296D01*
X46402380Y35818772D01*
X46402380Y36056867D01*
X46450000Y36247343D01*
X46497619Y36342581D01*
X46545238Y36390200D01*
X46640476Y36437820D01*
X47830952Y36104486D02*
X47830952Y35437820D01*
X47592857Y36485439D02*
X47354761Y35771153D01*
X47973809Y35771153D01*
X48545238Y36437820D02*
X48640476Y36437820D01*
X48735714Y36390200D01*
X48783333Y36342581D01*
X48830952Y36247343D01*
X48878571Y36056867D01*
X48878571Y35818772D01*
X48830952Y35628296D01*
X48783333Y35533058D01*
X48735714Y35485439D01*
X48640476Y35437820D01*
X48545238Y35437820D01*
X48450000Y35485439D01*
X48402380Y35533058D01*
X48354761Y35628296D01*
X48307142Y35818772D01*
X48307142Y36056867D01*
X48354761Y36247343D01*
X48402380Y36342581D01*
X48450000Y36390200D01*
X48545238Y36437820D01*
%TO.C,U5*%
X60622380Y23698296D02*
X61431904Y23698296D01*
X61527142Y23745915D01*
X61574761Y23793534D01*
X61622380Y23888772D01*
X61622380Y24079248D01*
X61574761Y24174486D01*
X61527142Y24222105D01*
X61431904Y24269724D01*
X60622380Y24269724D01*
X60622380Y25222105D02*
X60622380Y24745915D01*
X61098571Y24698296D01*
X61050952Y24745915D01*
X61003333Y24841153D01*
X61003333Y25079248D01*
X61050952Y25174486D01*
X61098571Y25222105D01*
X61193809Y25269724D01*
X61431904Y25269724D01*
X61527142Y25222105D01*
X61574761Y25174486D01*
X61622380Y25079248D01*
X61622380Y24841153D01*
X61574761Y24745915D01*
X61527142Y24698296D01*
X67953333Y25007820D02*
X68620000Y25007820D01*
X68191428Y24007820D01*
X69429523Y24674486D02*
X69429523Y24007820D01*
X69191428Y25055439D02*
X68953333Y24341153D01*
X69572380Y24341153D01*
X69953333Y24007820D02*
X69953333Y25007820D01*
X69953333Y24531629D02*
X70524761Y24531629D01*
X70524761Y24007820D02*
X70524761Y25007820D01*
X71572380Y24103058D02*
X71524761Y24055439D01*
X71381904Y24007820D01*
X71286666Y24007820D01*
X71143809Y24055439D01*
X71048571Y24150677D01*
X71000952Y24245915D01*
X70953333Y24436391D01*
X70953333Y24579248D01*
X71000952Y24769724D01*
X71048571Y24864962D01*
X71143809Y24960200D01*
X71286666Y25007820D01*
X71381904Y25007820D01*
X71524761Y24960200D01*
X71572380Y24912581D01*
X71858095Y25007820D02*
X72429523Y25007820D01*
X72143809Y24007820D02*
X72143809Y25007820D01*
X72667619Y25007820D02*
X73286666Y25007820D01*
X72953333Y24626867D01*
X73096190Y24626867D01*
X73191428Y24579248D01*
X73239047Y24531629D01*
X73286666Y24436391D01*
X73286666Y24198296D01*
X73239047Y24103058D01*
X73191428Y24055439D01*
X73096190Y24007820D01*
X72810476Y24007820D01*
X72715238Y24055439D01*
X72667619Y24103058D01*
X73667619Y24912581D02*
X73715238Y24960200D01*
X73810476Y25007820D01*
X74048571Y25007820D01*
X74143809Y24960200D01*
X74191428Y24912581D01*
X74239047Y24817343D01*
X74239047Y24722105D01*
X74191428Y24579248D01*
X73620000Y24007820D01*
X74239047Y24007820D01*
%TO.C,U4*%
X59352380Y9728296D02*
X60161904Y9728296D01*
X60257142Y9775915D01*
X60304761Y9823534D01*
X60352380Y9918772D01*
X60352380Y10109248D01*
X60304761Y10204486D01*
X60257142Y10252105D01*
X60161904Y10299724D01*
X59352380Y10299724D01*
X59685714Y11204486D02*
X60352380Y11204486D01*
X59304761Y10966391D02*
X60019047Y10728296D01*
X60019047Y11347343D01*
X67477142Y11037820D02*
X68143809Y11037820D01*
X67715238Y10037820D01*
X68953333Y10704486D02*
X68953333Y10037820D01*
X68715238Y11085439D02*
X68477142Y10371153D01*
X69096190Y10371153D01*
X69477142Y10037820D02*
X69477142Y11037820D01*
X69477142Y10561629D02*
X70048571Y10561629D01*
X70048571Y10037820D02*
X70048571Y11037820D01*
X71096190Y10133058D02*
X71048571Y10085439D01*
X70905714Y10037820D01*
X70810476Y10037820D01*
X70667619Y10085439D01*
X70572380Y10180677D01*
X70524761Y10275915D01*
X70477142Y10466391D01*
X70477142Y10609248D01*
X70524761Y10799724D01*
X70572380Y10894962D01*
X70667619Y10990200D01*
X70810476Y11037820D01*
X70905714Y11037820D01*
X71048571Y10990200D01*
X71096190Y10942581D01*
X71381904Y11037820D02*
X71953333Y11037820D01*
X71667619Y10037820D02*
X71667619Y11037820D01*
X72810476Y10037820D02*
X72239047Y10037820D01*
X72524761Y10037820D02*
X72524761Y11037820D01*
X72429523Y10894962D01*
X72334285Y10799724D01*
X72239047Y10752105D01*
X73143809Y11037820D02*
X73810476Y11037820D01*
X73381904Y10037820D01*
X74620000Y10704486D02*
X74620000Y10037820D01*
X74381904Y11085439D02*
X74143809Y10371153D01*
X74762857Y10371153D01*
%TO.C,U3*%
X4318095Y29877820D02*
X4318095Y29068296D01*
X4365714Y28973058D01*
X4413333Y28925439D01*
X4508571Y28877820D01*
X4699047Y28877820D01*
X4794285Y28925439D01*
X4841904Y28973058D01*
X4889523Y29068296D01*
X4889523Y29877820D01*
X5270476Y29877820D02*
X5889523Y29877820D01*
X5556190Y29496867D01*
X5699047Y29496867D01*
X5794285Y29449248D01*
X5841904Y29401629D01*
X5889523Y29306391D01*
X5889523Y29068296D01*
X5841904Y28973058D01*
X5794285Y28925439D01*
X5699047Y28877820D01*
X5413333Y28877820D01*
X5318095Y28925439D01*
X5270476Y28973058D01*
X5802380Y14467343D02*
X5802380Y15134010D01*
X6802380Y14705439D01*
X6135714Y15943534D02*
X6802380Y15943534D01*
X5754761Y15705439D02*
X6469047Y15467343D01*
X6469047Y16086391D01*
X6802380Y16467343D02*
X5802380Y16467343D01*
X6278571Y16467343D02*
X6278571Y17038772D01*
X6802380Y17038772D02*
X5802380Y17038772D01*
X6707142Y18086391D02*
X6754761Y18038772D01*
X6802380Y17895915D01*
X6802380Y17800677D01*
X6754761Y17657820D01*
X6659523Y17562581D01*
X6564285Y17514962D01*
X6373809Y17467343D01*
X6230952Y17467343D01*
X6040476Y17514962D01*
X5945238Y17562581D01*
X5850000Y17657820D01*
X5802380Y17800677D01*
X5802380Y17895915D01*
X5850000Y18038772D01*
X5897619Y18086391D01*
X5802380Y18372105D02*
X5802380Y18943534D01*
X6802380Y18657820D02*
X5802380Y18657820D01*
X6802380Y19800677D02*
X6802380Y19229248D01*
X6802380Y19514962D02*
X5802380Y19514962D01*
X5945238Y19419724D01*
X6040476Y19324486D01*
X6088095Y19229248D01*
X5802380Y20134010D02*
X5802380Y20753058D01*
X6183333Y20419724D01*
X6183333Y20562581D01*
X6230952Y20657820D01*
X6278571Y20705439D01*
X6373809Y20753058D01*
X6611904Y20753058D01*
X6707142Y20705439D01*
X6754761Y20657820D01*
X6802380Y20562581D01*
X6802380Y20276867D01*
X6754761Y20181629D01*
X6707142Y20134010D01*
X6230952Y21324486D02*
X6183333Y21229248D01*
X6135714Y21181629D01*
X6040476Y21134010D01*
X5992857Y21134010D01*
X5897619Y21181629D01*
X5850000Y21229248D01*
X5802380Y21324486D01*
X5802380Y21514962D01*
X5850000Y21610200D01*
X5897619Y21657820D01*
X5992857Y21705439D01*
X6040476Y21705439D01*
X6135714Y21657820D01*
X6183333Y21610200D01*
X6230952Y21514962D01*
X6230952Y21324486D01*
X6278571Y21229248D01*
X6326190Y21181629D01*
X6421428Y21134010D01*
X6611904Y21134010D01*
X6707142Y21181629D01*
X6754761Y21229248D01*
X6802380Y21324486D01*
X6802380Y21514962D01*
X6754761Y21610200D01*
X6707142Y21657820D01*
X6611904Y21705439D01*
X6421428Y21705439D01*
X6326190Y21657820D01*
X6278571Y21610200D01*
X6230952Y21514962D01*
%TO.C,U6*%
X59352380Y37668296D02*
X60161904Y37668296D01*
X60257142Y37715915D01*
X60304761Y37763534D01*
X60352380Y37858772D01*
X60352380Y38049248D01*
X60304761Y38144486D01*
X60257142Y38192105D01*
X60161904Y38239724D01*
X59352380Y38239724D01*
X59352380Y39144486D02*
X59352380Y38954010D01*
X59400000Y38858772D01*
X59447619Y38811153D01*
X59590476Y38715915D01*
X59780952Y38668296D01*
X60161904Y38668296D01*
X60257142Y38715915D01*
X60304761Y38763534D01*
X60352380Y38858772D01*
X60352380Y39049248D01*
X60304761Y39144486D01*
X60257142Y39192105D01*
X60161904Y39239724D01*
X59923809Y39239724D01*
X59828571Y39192105D01*
X59780952Y39144486D01*
X59733333Y39049248D01*
X59733333Y38858772D01*
X59780952Y38763534D01*
X59828571Y38715915D01*
X59923809Y38668296D01*
X67477142Y38977820D02*
X68143809Y38977820D01*
X67715238Y37977820D01*
X68953333Y38644486D02*
X68953333Y37977820D01*
X68715238Y39025439D02*
X68477142Y38311153D01*
X69096190Y38311153D01*
X69477142Y37977820D02*
X69477142Y38977820D01*
X69477142Y38501629D02*
X70048571Y38501629D01*
X70048571Y37977820D02*
X70048571Y38977820D01*
X71096190Y38073058D02*
X71048571Y38025439D01*
X70905714Y37977820D01*
X70810476Y37977820D01*
X70667619Y38025439D01*
X70572380Y38120677D01*
X70524761Y38215915D01*
X70477142Y38406391D01*
X70477142Y38549248D01*
X70524761Y38739724D01*
X70572380Y38834962D01*
X70667619Y38930200D01*
X70810476Y38977820D01*
X70905714Y38977820D01*
X71048571Y38930200D01*
X71096190Y38882581D01*
X71381904Y38977820D02*
X71953333Y38977820D01*
X71667619Y37977820D02*
X71667619Y38977820D01*
X72239047Y38882581D02*
X72286666Y38930200D01*
X72381904Y38977820D01*
X72620000Y38977820D01*
X72715238Y38930200D01*
X72762857Y38882581D01*
X72810476Y38787343D01*
X72810476Y38692105D01*
X72762857Y38549248D01*
X72191428Y37977820D01*
X72810476Y37977820D01*
X73715238Y38977820D02*
X73239047Y38977820D01*
X73191428Y38501629D01*
X73239047Y38549248D01*
X73334285Y38596867D01*
X73572380Y38596867D01*
X73667619Y38549248D01*
X73715238Y38501629D01*
X73762857Y38406391D01*
X73762857Y38168296D01*
X73715238Y38073058D01*
X73667619Y38025439D01*
X73572380Y37977820D01*
X73334285Y37977820D01*
X73239047Y38025439D01*
X73191428Y38073058D01*
X74096190Y38977820D02*
X74715238Y38977820D01*
X74381904Y38596867D01*
X74524761Y38596867D01*
X74620000Y38549248D01*
X74667619Y38501629D01*
X74715238Y38406391D01*
X74715238Y38168296D01*
X74667619Y38073058D01*
X74620000Y38025439D01*
X74524761Y37977820D01*
X74239047Y37977820D01*
X74143809Y38025439D01*
X74096190Y38073058D01*
%TO.C,C6*%
X60682142Y44613534D02*
X60729761Y44565915D01*
X60777380Y44423058D01*
X60777380Y44327820D01*
X60729761Y44184962D01*
X60634523Y44089724D01*
X60539285Y44042105D01*
X60348809Y43994486D01*
X60205952Y43994486D01*
X60015476Y44042105D01*
X59920238Y44089724D01*
X59825000Y44184962D01*
X59777380Y44327820D01*
X59777380Y44423058D01*
X59825000Y44565915D01*
X59872619Y44613534D01*
X59777380Y45470677D02*
X59777380Y45280200D01*
X59825000Y45184962D01*
X59872619Y45137343D01*
X60015476Y45042105D01*
X60205952Y44994486D01*
X60586904Y44994486D01*
X60682142Y45042105D01*
X60729761Y45089724D01*
X60777380Y45184962D01*
X60777380Y45375439D01*
X60729761Y45470677D01*
X60682142Y45518296D01*
X60586904Y45565915D01*
X60348809Y45565915D01*
X60253571Y45518296D01*
X60205952Y45470677D01*
X60158333Y45375439D01*
X60158333Y45184962D01*
X60205952Y45089724D01*
X60253571Y45042105D01*
X60348809Y44994486D01*
%TO.C,U2*%
X12362380Y13538296D02*
X13171904Y13538296D01*
X13267142Y13585915D01*
X13314761Y13633534D01*
X13362380Y13728772D01*
X13362380Y13919248D01*
X13314761Y14014486D01*
X13267142Y14062105D01*
X13171904Y14109724D01*
X12362380Y14109724D01*
X12457619Y14538296D02*
X12410000Y14585915D01*
X12362380Y14681153D01*
X12362380Y14919248D01*
X12410000Y15014486D01*
X12457619Y15062105D01*
X12552857Y15109724D01*
X12648095Y15109724D01*
X12790952Y15062105D01*
X13362380Y14490677D01*
X13362380Y15109724D01*
X40854761Y14133534D02*
X41330952Y14133534D01*
X40759523Y13847820D02*
X41092857Y14847820D01*
X41426190Y13847820D01*
X41711904Y13895439D02*
X41854761Y13847820D01*
X42092857Y13847820D01*
X42188095Y13895439D01*
X42235714Y13943058D01*
X42283333Y14038296D01*
X42283333Y14133534D01*
X42235714Y14228772D01*
X42188095Y14276391D01*
X42092857Y14324010D01*
X41902380Y14371629D01*
X41807142Y14419248D01*
X41759523Y14466867D01*
X41711904Y14562105D01*
X41711904Y14657343D01*
X41759523Y14752581D01*
X41807142Y14800200D01*
X41902380Y14847820D01*
X42140476Y14847820D01*
X42283333Y14800200D01*
X43140476Y14847820D02*
X42950000Y14847820D01*
X42854761Y14800200D01*
X42807142Y14752581D01*
X42711904Y14609724D01*
X42664285Y14419248D01*
X42664285Y14038296D01*
X42711904Y13943058D01*
X42759523Y13895439D01*
X42854761Y13847820D01*
X43045238Y13847820D01*
X43140476Y13895439D01*
X43188095Y13943058D01*
X43235714Y14038296D01*
X43235714Y14276391D01*
X43188095Y14371629D01*
X43140476Y14419248D01*
X43045238Y14466867D01*
X42854761Y14466867D01*
X42759523Y14419248D01*
X42711904Y14371629D01*
X42664285Y14276391D01*
X44235714Y13943058D02*
X44188095Y13895439D01*
X44045238Y13847820D01*
X43950000Y13847820D01*
X43807142Y13895439D01*
X43711904Y13990677D01*
X43664285Y14085915D01*
X43616666Y14276391D01*
X43616666Y14419248D01*
X43664285Y14609724D01*
X43711904Y14704962D01*
X43807142Y14800200D01*
X43950000Y14847820D01*
X44045238Y14847820D01*
X44188095Y14800200D01*
X44235714Y14752581D01*
X45092857Y14514486D02*
X45092857Y13847820D01*
X44854761Y14895439D02*
X44616666Y14181153D01*
X45235714Y14181153D01*
X45807142Y14847820D02*
X45902380Y14847820D01*
X45997619Y14800200D01*
X46045238Y14752581D01*
X46092857Y14657343D01*
X46140476Y14466867D01*
X46140476Y14228772D01*
X46092857Y14038296D01*
X46045238Y13943058D01*
X45997619Y13895439D01*
X45902380Y13847820D01*
X45807142Y13847820D01*
X45711904Y13895439D01*
X45664285Y13943058D01*
X45616666Y14038296D01*
X45569047Y14228772D01*
X45569047Y14466867D01*
X45616666Y14657343D01*
X45664285Y14752581D01*
X45711904Y14800200D01*
X45807142Y14847820D01*
X46759523Y14847820D02*
X46854761Y14847820D01*
X46950000Y14800200D01*
X46997619Y14752581D01*
X47045238Y14657343D01*
X47092857Y14466867D01*
X47092857Y14228772D01*
X47045238Y14038296D01*
X46997619Y13943058D01*
X46950000Y13895439D01*
X46854761Y13847820D01*
X46759523Y13847820D01*
X46664285Y13895439D01*
X46616666Y13943058D01*
X46569047Y14038296D01*
X46521428Y14228772D01*
X46521428Y14466867D01*
X46569047Y14657343D01*
X46616666Y14752581D01*
X46664285Y14800200D01*
X46759523Y14847820D01*
X47664285Y14419248D02*
X47569047Y14466867D01*
X47521428Y14514486D01*
X47473809Y14609724D01*
X47473809Y14657343D01*
X47521428Y14752581D01*
X47569047Y14800200D01*
X47664285Y14847820D01*
X47854761Y14847820D01*
X47950000Y14800200D01*
X47997619Y14752581D01*
X48045238Y14657343D01*
X48045238Y14609724D01*
X47997619Y14514486D01*
X47950000Y14466867D01*
X47854761Y14419248D01*
X47664285Y14419248D01*
X47569047Y14371629D01*
X47521428Y14324010D01*
X47473809Y14228772D01*
X47473809Y14038296D01*
X47521428Y13943058D01*
X47569047Y13895439D01*
X47664285Y13847820D01*
X47854761Y13847820D01*
X47950000Y13895439D01*
X47997619Y13943058D01*
X48045238Y14038296D01*
X48045238Y14228772D01*
X47997619Y14324010D01*
X47950000Y14371629D01*
X47854761Y14419248D01*
%TO.C,C5*%
X61952142Y30643534D02*
X61999761Y30595915D01*
X62047380Y30453058D01*
X62047380Y30357820D01*
X61999761Y30214962D01*
X61904523Y30119724D01*
X61809285Y30072105D01*
X61618809Y30024486D01*
X61475952Y30024486D01*
X61285476Y30072105D01*
X61190238Y30119724D01*
X61095000Y30214962D01*
X61047380Y30357820D01*
X61047380Y30453058D01*
X61095000Y30595915D01*
X61142619Y30643534D01*
X61047380Y31548296D02*
X61047380Y31072105D01*
X61523571Y31024486D01*
X61475952Y31072105D01*
X61428333Y31167343D01*
X61428333Y31405439D01*
X61475952Y31500677D01*
X61523571Y31548296D01*
X61618809Y31595915D01*
X61856904Y31595915D01*
X61952142Y31548296D01*
X61999761Y31500677D01*
X62047380Y31405439D01*
X62047380Y31167343D01*
X61999761Y31072105D01*
X61952142Y31024486D01*
%TO.C,C4*%
X60682142Y16673534D02*
X60729761Y16625915D01*
X60777380Y16483058D01*
X60777380Y16387820D01*
X60729761Y16244962D01*
X60634523Y16149724D01*
X60539285Y16102105D01*
X60348809Y16054486D01*
X60205952Y16054486D01*
X60015476Y16102105D01*
X59920238Y16149724D01*
X59825000Y16244962D01*
X59777380Y16387820D01*
X59777380Y16483058D01*
X59825000Y16625915D01*
X59872619Y16673534D01*
X60110714Y17530677D02*
X60777380Y17530677D01*
X59729761Y17292581D02*
X60444047Y17054486D01*
X60444047Y17673534D01*
%TO.C,C3*%
X8723333Y31088058D02*
X8675714Y31040439D01*
X8532857Y30992820D01*
X8437619Y30992820D01*
X8294761Y31040439D01*
X8199523Y31135677D01*
X8151904Y31230915D01*
X8104285Y31421391D01*
X8104285Y31564248D01*
X8151904Y31754724D01*
X8199523Y31849962D01*
X8294761Y31945200D01*
X8437619Y31992820D01*
X8532857Y31992820D01*
X8675714Y31945200D01*
X8723333Y31897581D01*
X9056666Y31992820D02*
X9675714Y31992820D01*
X9342380Y31611867D01*
X9485238Y31611867D01*
X9580476Y31564248D01*
X9628095Y31516629D01*
X9675714Y31421391D01*
X9675714Y31183296D01*
X9628095Y31088058D01*
X9580476Y31040439D01*
X9485238Y30992820D01*
X9199523Y30992820D01*
X9104285Y31040439D01*
X9056666Y31088058D01*
%TO.C,C2*%
X13692142Y24293534D02*
X13739761Y24245915D01*
X13787380Y24103058D01*
X13787380Y24007820D01*
X13739761Y23864962D01*
X13644523Y23769724D01*
X13549285Y23722105D01*
X13358809Y23674486D01*
X13215952Y23674486D01*
X13025476Y23722105D01*
X12930238Y23769724D01*
X12835000Y23864962D01*
X12787380Y24007820D01*
X12787380Y24103058D01*
X12835000Y24245915D01*
X12882619Y24293534D01*
X12882619Y24674486D02*
X12835000Y24722105D01*
X12787380Y24817343D01*
X12787380Y25055439D01*
X12835000Y25150677D01*
X12882619Y25198296D01*
X12977857Y25245915D01*
X13073095Y25245915D01*
X13215952Y25198296D01*
X13787380Y24626867D01*
X13787380Y25245915D01*
%TO.C,C1*%
X13692142Y45883534D02*
X13739761Y45835915D01*
X13787380Y45693058D01*
X13787380Y45597820D01*
X13739761Y45454962D01*
X13644523Y45359724D01*
X13549285Y45312105D01*
X13358809Y45264486D01*
X13215952Y45264486D01*
X13025476Y45312105D01*
X12930238Y45359724D01*
X12835000Y45454962D01*
X12787380Y45597820D01*
X12787380Y45693058D01*
X12835000Y45835915D01*
X12882619Y45883534D01*
X13787380Y46835915D02*
X13787380Y46264486D01*
X13787380Y46550200D02*
X12787380Y46550200D01*
X12930238Y46454962D01*
X13025476Y46359724D01*
X13073095Y46264486D01*
%TD*%
M02*
